<svg xmlns="http://www.w3.org/2000/svg" xmlns:xlink="http://www.w3.org/1999/xlink" width="1080" zoomAndPan="magnify" viewBox="0 0 810 809.999993" height="1080" preserveAspectRatio="xMidYMid meet" version="1.0"><defs><clipPath id="dea20af76e"><path d="M 405 0 C 181.324219 0 0 181.324219 0 405 C 0 628.675781 181.324219 810 405 810 C 628.675781 810 810 628.675781 810 405 C 810 181.324219 628.675781 0 405 0 Z M 405 0 " clip-rule="nonzero"/></clipPath><clipPath id="c897aee870"><path d="M 193.464844 172.011719 L 616.464844 172.011719 L 616.464844 637.761719 L 193.464844 637.761719 Z M 193.464844 172.011719 " clip-rule="nonzero"/></clipPath></defs><g clip-path="url(#dea20af76e)"><rect x="-81" width="972" fill="#4267b2" y="-80.999999" height="971.999992" fill-opacity="1"/></g><g clip-path="url(#c897aee870)"><path fill="#ffffff" d="M 578.90625 418.96875 C 573.613281 413.671875 567.917969 408.894531 561.878906 404.652344 C 567.929688 400.410156 573.613281 395.636719 578.90625 390.339844 C 590.660156 378.589844 599.898438 364.886719 606.347656 349.628906 C 613.035156 333.828125 616.425781 317.050781 616.425781 299.765625 C 616.425781 282.480469 613.035156 265.703125 606.347656 249.898438 C 599.898438 234.640625 590.660156 220.949219 578.90625 209.1875 C 567.15625 197.4375 553.453125 188.371094 538.195312 181.921875 C 522.382812 175.230469 505.605469 172.011719 488.320312 172.011719 L 193.601562 172.011719 L 193.601562 323.058594 L 391.359375 323.058594 L 332.859375 381.636719 L 193.601562 381.636719 L 193.601562 638.023438 L 488.320312 638.023438 C 505.605469 638.023438 522.382812 634.449219 538.183594 627.761719 C 553.445312 621.3125 567.136719 611.976562 578.898438 600.226562 C 590.648438 588.464844 599.886719 574.722656 606.335938 559.464844 C 613.027344 543.664062 616.417969 526.855469 616.417969 509.570312 C 616.417969 492.289062 613.027344 475.5 606.335938 459.6875 C 599.886719 444.4375 590.660156 430.726562 578.90625 418.96875 Z M 488.320312 591.261719 L 240.363281 591.261719 L 240.363281 428.128906 L 334.960938 428.128906 L 392.394531 485.398438 L 286.597656 485.398438 L 286.597656 531.890625 L 504.363281 531.890625 L 376.3125 403.84375 L 503.320312 276.824219 L 240.363281 276.824219 L 240.363281 218.246094 L 488.328125 218.246094 C 533.390625 218.246094 570.039062 254.800781 570.039062 299.859375 C 570.039062 344.640625 533.835938 381.148438 489.160156 381.609375 C 488.882812 381.609375 488.605469 381.636719 488.320312 381.636719 L 459.09375 381.636719 L 436.957031 403.832031 L 461.195312 428.128906 L 488.597656 428.128906 L 488.597656 427.851562 C 488.855469 427.851562 489.019531 427.84375 489.292969 427.84375 C 533.972656 428.292969 570.105469 464.769531 570.105469 509.542969 C 570.105469 554.601562 533.378906 591.261719 488.320312 591.261719 Z M 488.320312 591.261719 " fill-opacity="1" fill-rule="nonzero"/></g></svg>